<svg xmlns="http://www.w3.org/2000/svg" viewBox="0 0 500 500"><g id="freepik--background-simple--inject-2"><g><path d="M443.78639,114.1756c-3.2271-5.2293-6.7941-10.306-10.7447-15.2037-31.7958-39.421-73.3673-56.0963-120.8629-67.2735-49.0529-11.5433-106.4861-15.1759-153.57779,5.6938-11.0853,4.9128-21.5944,11.4924-29.9583,20.4062-31.5032,33.5747-42.3044,89.8351-77.4081,134.2989C16.131,236.5609-.97081,291.9136,30.5324,344.5443c13.3321,22.273,30.331,40.6482,50.4456,56.7695,24.7664,19.8496,46.1282,46.6225,74.7482,62.1183,30.0812,16.287,70.1433,21.9614,103.4315,14.5033,37.9796-8.5093,60.2562-42.3431,89.2489-65.4187,22.8562-18.1915,50.1966-30.0976,72.5936-48.8606,34.3132-28.7453,60.3276-74.9493,55.9786-120.7448-4.2187-44.4231-9.6824-90.638-33.1924-128.7357Z" style="fill:#B28B2F;"></path><path d="M443.78639,114.1756c-3.2271-5.2293-6.7941-10.306-10.7447-15.2037-31.7958-39.421-73.3673-56.0963-120.8629-67.2735-49.0529-11.5433-106.4861-15.1759-153.57779,5.6938-11.0853,4.9128-21.5944,11.4924-29.9583,20.4062-31.5032,33.5747-42.3044,89.8351-77.4081,134.2989C16.131,236.5609-.97081,291.9136,30.5324,344.5443c13.3321,22.273,30.331,40.6482,50.4456,56.7695,24.7664,19.8496,46.1282,46.6225,74.7482,62.1183,30.0812,16.287,70.1433,21.9614,103.4315,14.5033,37.9796-8.5093,60.2562-42.3431,89.2489-65.4187,22.8562-18.1915,50.1966-30.0976,72.5936-48.8606,34.3132-28.7453,60.3276-74.9493,55.9786-120.7448-4.2187-44.4231-9.6824-90.638-33.1924-128.7357Z" style="fill:#fff; opacity:.7;"></path></g></g><g id="freepik--Clouds--inject-2"><path d="M382.15769,71.3572s-14.1061-22.0869-32.1619-20.893c-18.05579,1.1939-27.0837,18.5052-32.1619,20.2961-5.0782,1.7908-15.7988-10.1481-25.39089-8.3572-9.59221,1.7908-10.15641,12.5358-14.67041,14.3266-4.5139,1.7908-14.6703-4.1786-21.4412-2.9847-6.771,1.1939-11.8492,5.9694-16.3631,7.7602,0,0-6.7709,2.9847-12.4134,4.1786l-5.6424,1.1939h195.7926s.5642-8.9541-10.7207-14.9236c-11.2848-5.9694-17.4915,1.7909-24.8267-.5969Z" style="fill:none; stroke:#263238; stroke-miterlimit:10;"></path><path d="M155.4098,127.3134s-10.4659-15.5285-23.8621-14.6892c-13.3963,.8394-20.0945,13.0104-23.8622,14.2695s-11.7217-7.1347-18.8385-5.8757c-7.1167,1.2591-7.5354,8.8135-10.8844,10.0726-3.3491,1.259-10.8845-2.9378-15.9081-2.0985-5.0236,.8394-8.7913,4.1969-12.1404,5.456,0,0-5.0236,2.0984-9.2099,2.9378l-4.1864,.8394H181.7837s.4186-6.2953-7.954-10.4922c-8.3727-4.1969-12.9777,1.259-18.4199-.4197Z" style="fill:none; stroke:#263238; stroke-miterlimit:10;"></path><path d="M405.05319,180.5491s-6.6961-9.9352-15.26719-9.3982c-8.571,.5371-12.85651,8.3241-15.26711,9.1297s-7.4996-4.5648-12.053-3.7593c-4.5533,.8056-4.8212,5.6389-6.96389,6.4445-2.14281,.8056-6.964-1.8796-10.17811-1.3426-3.2142,.537-5.6248,2.6852-7.7675,3.4908,0,0-3.2142,1.3426-5.8926,1.8796l-2.6784,.537h92.942s.2678-4.0278-5.0891-6.713-8.3031,.8056-11.7851-.2685Z" style="fill:none; stroke:#263238; stroke-miterlimit:10;"></path></g><g id="freepik--Trees--inject-2"><g><path d="M472.44979,221.645l-7.6176,3.5026,13.6837-21.4848c.2369-1.3678,.4428-2.754,.6214-4.1555l.5838-17.9839s-7.9638,7.6421-9.0026,7.9606c-.9097,.2788,5.6169-24.5987,7.2519-30.7817-.49339-4.5183-1.0751-9.2921-1.7391-14.24l-10.0141,5.2185,7.6175-11.7817-2.77-23.8819-5.1936,2.2289,3.7676-11.6176c-1.6388-8.2714-3.4439-16.4373-5.3915-24.1825l-4.9549-11.6453-2.4238,10.1896-.3269-24.3485c-5.75-15.8399-12.24759-26.4138-19.128-26.4138-8.3062,0-16.0542,15.4056-22.6018,36.8915l-.1864,13.8708-1.73339-7.2879c-3.379,12.1205-6.39411,25.7219-8.94521,39.3753l1.6761,5.1684-2.4313-1.0433c-1.5302,8.5011-2.8768,16.9625-4.0155,25.0427l6.1005,9.4353-6.8959-3.5936c-1.0358,7.8741-1.8586,15.2779-2.4432,21.8681,2.4303,9.442,5.4786,21.725,4.8379,21.5287-.5988-.1836-3.4949-2.7974-5.8438-4.9815-.0192,.8931-.0322,1.7594-.0322,2.5664,0,8.71,1.1343,17.0129,3.1778,24.6002l8.5845,13.4785-4.6233-2.1258c7.6234,17.4027,20.6195,28.8683,35.3752,28.8683,14.9346,0,28.06141-11.7511,35.6447-29.5097l-.6085-.7354Z" style="fill:#B28B2F;"></path><polygon points="461.25179 187.8255 448.37859 192.5868 450.96149 184.8381 444.80689 193.9078 438.66209 196.1808 438.22359 170.734 460.588 141.0212 448.60239 153.0067 450.62959 144.6728 444.89619 156.7132 438.099 163.5102 437.41359 123.7537 434.97729 181.7372 413.78379 159.2784 425.42529 175.1035 414.44769 173.8839 428.00779 178.6141 434.72489 187.7452 433.55019 215.7017 425.73389 210.3977 433.30709 221.4876 429.717 365.4996 440.57179 365.4996 438.73239 200.2401 461.25179 187.8255" style="fill:#263238;"></polygon><g><path d="M460.80219,123.8794s.3932,3.906-1.7418,6.7731c-2.1349,2.8675-5.9895,3.6106-5.9895,3.6106,0,0-.3932-3.906,1.7417-6.7733,2.135-2.8675,5.9896-3.6104,5.9896-3.6104Z" style="fill:#fff;"></path><path d="M473.61579,141.8827s.3934,3.9058-1.7417,6.7733c-2.1349,2.8674-5.9897,3.6103-5.9897,3.6103,0,0-.3932-3.9058,1.742-6.7731,2.135-2.8675,5.9894-3.6105,5.9894-3.6105Z" style="fill:#fff;"></path><path d="M473.61039,176.9353s-.94439,3.8102-3.9202,5.7915c-2.9754,1.9814-6.8553,1.3835-6.8553,1.3835,0,0,.9447-3.8102,3.9202-5.7916,2.9756-1.9814,6.8553-1.3834,6.8553-1.3834Z" style="fill:#fff;"></path><path d="M403.23809,176.9353s.9447,3.8102,3.9202,5.7915c2.9758,1.9814,6.8554,1.3835,6.8554,1.3835,0,0-.9445-3.8102-3.9201-5.7916-2.97559-1.9814-6.8555-1.3834-6.8555-1.3834Z" style="fill:#fff;"></path><path d="M458.81069,162.3851s.393,3.906-1.7419,6.7731c-2.135,2.8675-5.9896,3.6104-5.9896,3.6104,0,0-.3933-3.9057,1.74181-6.7732,2.13509-2.8673,5.98969-3.6103,5.98969-3.6103Z" style="fill:#fff;"></path><path d="M455.49129,104.2948s.3931,3.9057-1.7419,6.7731c-2.1351,2.8674-5.9896,3.6104-5.9896,3.6104,0,0-.3932-3.9058,1.7417-6.7732,2.1351-2.8674,5.9898-3.6103,5.9898-3.6103Z" style="fill:#fff;"></path><path d="M447.85639,119.2322s.3933,3.9058-1.7418,6.7733c-2.135,2.8675-5.9897,3.6103-5.9897,3.6103,0,0-.3932-3.906,1.7418-6.7733,2.1351-2.8672,5.9897-3.6103,5.9897-3.6103Z" style="fill:#fff;"></path><path d="M465.98119,108.3562s.3931,3.906-1.7418,6.7735c-2.135,2.8671-5.9896,3.6102-5.9896,3.6102,0,0-.3931-3.9059,1.7416-6.7732,2.1351-2.8674,5.9898-3.6105,5.9898-3.6105Z" style="fill:#fff;"></path><path d="M407.08409,108.3562s-.393,3.906,1.74191,6.7735c2.135,2.8671,5.98969,3.6102,5.98969,3.6102,0,0,.3931-3.9059-1.7419-6.7732-2.135-2.8674-5.9897-3.6105-5.9897-3.6105Z" style="fill:#fff;"></path><path d="M457.15089,86.0376s.39311,3.906-1.7416,6.7733c-2.1351,2.8674-5.9898,3.6105-5.9898,3.6105,0,0-.3931-3.9059,1.7418-6.7733,2.1348-2.8674,5.9896-3.6105,5.9896-3.6105Z" style="fill:#fff;"></path><path d="M453.39889,66.644s1.3618,3.682,.0158,6.9938c-1.346,3.3116-4.8906,4.9992-4.8906,4.9992,0,0-1.3618-3.6817-.0157-6.9934,1.3461-3.3119,4.8905-4.9996,4.8905-4.9996Z" style="fill:#fff;"></path><path d="M426.51429,61.5764s3.4774,1.8215,4.6962,5.1823c1.219,3.3606-.2824,6.9877-.2824,6.9877,0,0-3.4773-1.8214-4.69609-5.1822-1.219-3.3607,.28229-6.9878,.28229-6.9878Z" style="fill:#fff;"></path><path d="M439.05129,84.7673s2.4773,3.0453,2.2718,6.6142c-.20509,3.5689-3.0153,6.3102-3.0153,6.3102,0,0-2.4771-3.0454-2.2719-6.6142,.2054-3.569,3.0154-6.3102,3.0154-6.3102Z" style="fill:#fff;"></path><path d="M438.38729,50.245s2.4773,3.0454,2.2722,6.6142c-.2054,3.5691-3.0156,6.3102-3.0156,6.3102,0,0-2.4773-3.0453-2.2718-6.6142,.2052-3.569,3.0152-6.3102,3.0152-6.3102Z" style="fill:#fff;"></path><path d="M410.25,123.8794s-.39321,3.906,1.74169,6.7731c2.1351,2.8675,5.9898,3.6106,5.9898,3.6106,0,0,.3931-3.906-1.7419-6.7733-2.135-2.8675-5.98959-3.6104-5.98959-3.6104Z" style="fill:#fff;"></path><path d="M402.94709,145.124s-.3932,3.9057,1.742,6.7732c2.1347,2.8673,5.9896,3.6102,5.9896,3.6102,0,0,.3931-3.9057-1.742-6.7731-2.1349-2.8674-5.9896-3.6103-5.9896-3.6103Z" style="fill:#fff;"></path><path d="M422.33219,152.8369s-.39319,3.906,1.7419,6.7732c2.13491,2.8674,5.9897,3.6104,5.9897,3.6104,0,0,.39321-3.9058-1.7419-6.7731-2.135-2.8675-5.9897-3.6105-5.9897-3.6105Z" style="fill:#fff;"></path><path d="M427.63249,123.4s-1.49549,3.6298-.2711,6.9885c1.22461,3.3588,4.7051,5.1743,4.7051,5.1743,0,0,1.4952-3.6296,.27051-6.9883-1.22421-3.3587-4.70451-5.1745-4.70451-5.1745Z" style="fill:#fff;"></path><path d="M413.90549,201.7302s3.9248,.0717,6.6077-2.2911c2.6826-2.3629,3.1072-6.2655,3.1072-6.2655,0,0-3.925-.0716-6.6078,2.2911-2.6825,2.3629-3.1071,6.2655-3.1071,6.2655Z" style="fill:#fff;"></path><path d="M451.56879,197.4368s1.06621,3.7779,4.104,5.663c3.0375,1.8848,6.896,1.1627,6.896,1.1627,0,0-1.0663-3.7779-4.10379-5.6628-3.03751-1.8849-6.89621-1.1629-6.89621-1.1629Z" style="fill:#fff;"></path><path d="M418.284,104.2948s-.39321,3.9057,1.74189,6.7731c2.135,2.8674,5.9894,3.6104,5.9894,3.6104,0,0,.3935-3.9058-1.7415-6.7732-2.1351-2.8674-5.98979-3.6103-5.98979-3.6103Z" style="fill:#fff;"></path><path d="M418.21679,87.0335s-.3933,3.9058,1.7415,6.7733c2.1351,2.8673,5.9898,3.6104,5.9898,3.6104,0,0,.3931-3.906-1.7419-6.7733-2.1347-2.8673-5.9894-3.6104-5.9894-3.6104Z" style="fill:#fff;"></path></g></g><g><path d="M285.646,221.645l-7.61751,3.5026,13.6837-21.4848c.2369-1.3678,.4427-2.754,.6214-4.1555l.5838-17.9839s-7.9639,7.6421-9.0026,7.9606c-.90979,.2788,5.6169-24.5987,7.2519-30.7817-.4934-4.5183-1.0751-9.2921-1.7392-14.24l-10.014,5.2185,7.61751-11.7817-2.77-23.8819-5.19371,2.2289,3.76771-11.6176c-1.63891-8.2714-3.44391-16.4373-5.39161-24.1825l-4.9549-11.6453-2.4238,10.1896-.3269-24.3485c-5.7499-15.8399-12.2475-26.4138-19.128-26.4138-8.3061,0-16.0542,15.4056-22.6017,36.8915l-.1865,13.8708-1.7333-7.2879c-3.379,12.1205-6.3942,25.7219-8.94529,39.3753l1.67609,5.1684-2.4312-1.0433c-1.5302,8.5011-2.8768,16.9625-4.0155,25.0427l6.1005,9.4353-6.896-3.5936c-1.0358,7.8741-1.8585,15.2779-2.4431,21.8681,2.4303,9.442,5.4786,21.725,4.8378,21.5287-.5987-.1836-3.4949-2.7974-5.8437-4.9815-.0192,.8931-.0322,1.7594-.0322,2.5664,0,8.71,1.13431,17.0129,3.1778,24.6002l8.58451,13.4785-4.62341-2.1258c7.6235,17.4027,20.6196,28.8683,35.3752,28.8683,14.9347,0,28.0615-11.7511,35.6448-29.5097l-.60859-.7354Z" style="fill:#B28B2F;"></path><polygon points="274.448 187.8255 261.57489 192.5868 264.15779 184.8381 258.00319 193.9078 251.85839 196.1808 251.41989 170.734 273.78419 141.0212 261.79869 153.0067 263.82579 144.6728 258.09239 156.7132 251.29519 163.5102 250.60979 123.7537 248.17359 181.7372 226.98009 159.2784 238.62159 175.1035 227.644 173.8839 241.204 178.6141 247.92109 187.7452 246.74649 215.7017 238.93009 210.3977 246.50329 221.4876 242.91319 365.4996 253.768 365.4996 251.92869 200.2401 274.448 187.8255" style="fill:#263238;"></polygon><g><path d="M273.99849,123.8794s.3932,3.906-1.7418,6.7731c-2.1349,2.8675-5.9895,3.6106-5.9895,3.6106,0,0-.39319-3.906,1.7416-6.7733,2.1351-2.8675,5.9897-3.6104,5.9897-3.6104Z" style="fill:#fff;"></path><path d="M286.81209,141.8827s.3933,3.9058-1.7417,6.7733c-2.135,2.8674-5.9897,3.6103-5.9897,3.6103,0,0-.3932-3.9058,1.742-6.7731,2.1349-2.8675,5.9894-3.6105,5.9894-3.6105Z" style="fill:#fff;"></path><path d="M286.80669,176.9353s-.9444,3.8102-3.9203,5.7915c-2.9753,1.9814-6.8552,1.3835-6.8552,1.3835,0,0,.9446-3.8102,3.9202-5.7916,2.97561-1.9814,6.8553-1.3834,6.8553-1.3834Z" style="fill:#fff;"></path><path d="M216.43439,176.9353s.94461,3.8102,3.9201,5.7915c2.9759,1.9814,6.8554,1.3835,6.8554,1.3835,0,0-.9445-3.8102-3.9201-5.7916-2.9755-1.9814-6.8554-1.3834-6.8554-1.3834Z" style="fill:#fff;"></path><path d="M272.007,162.3851s.393,3.906-1.742,6.7731c-2.13491,2.8675-5.98951,3.6104-5.98951,3.6104,0,0-.3933-3.9057,1.7417-6.7732,2.1352-2.8673,5.98981-3.6103,5.98981-3.6103Z" style="fill:#fff;"></path><path d="M268.68759,104.2948s.3931,3.9057-1.7419,6.7731c-2.1351,2.8674-5.98969,3.6104-5.98969,3.6104,0,0-.39311-3.9058,1.74179-6.7732,2.135-2.8674,5.9898-3.6103,5.9898-3.6103Z" style="fill:#fff;"></path><path d="M261.05269,119.2322s.39331,3.9058-1.7419,6.7733c-2.1349,2.8675-5.9896,3.6103-5.9896,3.6103,0,0-.39319-3.906,1.74181-6.7733,2.13509-2.8672,5.98969-3.6103,5.98969-3.6103Z" style="fill:#fff;"></path><path d="M279.17749,108.3562s.3931,3.906-1.7419,6.7735c-2.1349,2.8671-5.98959,3.6102-5.98959,3.6102,0,0-.39311-3.9059,1.74169-6.7732,2.1351-2.8674,5.9898-3.6105,5.9898-3.6105Z" style="fill:#fff;"></path><path d="M220.28039,108.3562s-.393,3.906,1.7419,6.7735c2.1349,2.8671,5.9896,3.6102,5.9896,3.6102,0,0,.3932-3.9059-1.7418-6.7732-2.13509-2.8674-5.9897-3.6105-5.9897-3.6105Z" style="fill:#fff;"></path><path d="M270.34709,86.0376s.3931,3.906-1.7415,6.7733c-2.1351,2.8674-5.9898,3.6105-5.9898,3.6105,0,0-.3931-3.9059,1.7417-6.7733s5.9896-3.6105,5.9896-3.6105Z" style="fill:#fff;"></path><path d="M266.59509,66.644s1.36191,3.682,.0158,6.9938c-1.346,3.3116-4.8905,4.9992-4.8905,4.9992,0,0-1.3618-3.6817-.0158-6.9934,1.3461-3.3119,4.8905-4.9996,4.8905-4.9996Z" style="fill:#fff;"></path><path d="M239.71059,61.5764s3.4773,1.8215,4.6961,5.1823c1.2191,3.3606-.2823,6.9877-.2823,6.9877,0,0-3.47739-1.8214-4.6962-5.1822-1.2189-3.3607,.2824-6.9878,.2824-6.9878Z" style="fill:#fff;"></path><path d="M252.24759,84.7673s2.4772,3.0453,2.2718,6.6142c-.2051,3.5689-3.0153,6.3102-3.0153,6.3102,0,0-2.4772-3.0454-2.2719-6.6142,.2054-3.569,3.0154-6.3102,3.0154-6.3102Z" style="fill:#fff;"></path><path d="M251.58359,50.245s2.4773,3.0454,2.2722,6.6142c-.2055,3.5691-3.0157,6.3102-3.0157,6.3102,0,0-2.4772-3.0453-2.2718-6.6142,.2053-3.569,3.0153-6.3102,3.0153-6.3102Z" style="fill:#fff;"></path><path d="M223.44619,123.8794s-.39319,3.906,1.74181,6.7731c2.135,2.8675,5.98979,3.6106,5.98979,3.6106,0,0,.3931-3.906-1.7419-6.7733-2.1351-2.8675-5.9897-3.6104-5.9897-3.6104Z" style="fill:#fff;"></path><path d="M216.14339,145.124s-.3932,3.9057,1.7419,6.7732c2.1348,2.8673,5.9896,3.6102,5.9896,3.6102,0,0,.39311-3.9057-1.74189-6.7731-2.13491-2.8674-5.98961-3.6103-5.98961-3.6103Z" style="fill:#fff;"></path><path d="M235.52849,152.8369s-.3932,3.906,1.7418,6.7732c2.135,2.8674,5.98971,3.6104,5.98971,3.6104,0,0,.39319-3.9058-1.74181-6.7731-2.1351-2.8675-5.9897-3.6105-5.9897-3.6105Z" style="fill:#fff;"></path><path d="M240.82869,123.4s-1.4955,3.6298-.271,6.9885c1.2245,3.3588,4.705,5.1743,4.705,5.1743,0,0,1.49531-3.6296,.2706-6.9883-1.22429-3.3587-4.7046-5.1745-4.7046-5.1745Z" style="fill:#fff;"></path><path d="M227.10169,201.7302s3.9249,.0717,6.6077-2.2911c2.68261-2.3629,3.1073-6.2655,3.1073-6.2655,0,0-3.9251-.0716-6.6079,2.2911-2.6824,2.3629-3.1071,6.2655-3.1071,6.2655Z" style="fill:#fff;"></path><path d="M264.76509,197.4368s1.0662,3.7779,4.104,5.663c3.0375,1.8848,6.89591,1.1627,6.89591,1.1627,0,0-1.06621-3.7779-4.10371-5.6628-3.0376-1.8849-6.8962-1.1629-6.8962-1.1629Z" style="fill:#fff;"></path><path d="M231.48019,104.2948s-.39319,3.9057,1.742,6.7731c2.135,2.8674,5.9894,3.6104,5.9894,3.6104,0,0,.3935-3.9058-1.74159-6.7732-2.135-2.8674-5.98981-3.6103-5.98981-3.6103Z" style="fill:#fff;"></path><path d="M231.413,87.0335s-.39321,3.9058,1.74159,6.7733c2.1351,2.8673,5.9898,3.6104,5.9898,3.6104,0,0,.3931-3.906-1.742-6.7733-2.1347-2.8673-5.98939-3.6104-5.98939-3.6104Z" style="fill:#fff;"></path></g></g><g><path d="M98.8423,221.645l-7.6175,3.5026,13.6837-21.4848c.2369-1.3678,.4427-2.754,.6214-4.1555l.5838-17.9839s-7.9639,7.6421-9.0026,7.9606c-.9098,.2788,5.6168-24.5987,7.2518-30.7817-.4933-4.5183-1.075-9.2921-1.7391-14.24l-10.0141,5.2185,7.6176-11.7817-2.7701-23.8819-5.1936,2.2289,3.7677-11.6176c-1.6389-8.2714-3.4439-16.4373-5.3916-24.1825l-4.9549-11.6453-2.4238,10.1896-.3269-24.3485c-5.7499-15.8399-12.2475-26.4138-19.128-26.4138-8.3062,0-16.0542,15.4056-22.6017,36.8915l-.1865,13.8708-1.7333-7.2879c-3.3791,12.1205-6.3942,25.7219-8.9453,39.3753l1.6761,5.1684-2.4312-1.0433c-1.5303,8.5011-2.8768,16.9625-4.0155,25.0427l6.1005,9.4353-6.896-3.5936c-1.0358,7.8741-1.8585,15.2779-2.4432,21.8681,2.4303,9.442,5.4787,21.725,4.8379,21.5287-.5987-.1836-3.4949-2.7974-5.8438-4.9815-.0191,.8931-.0321,1.7594-.0321,2.5664,0,8.71,1.1343,17.0129,3.1778,24.6002l8.5844,13.4785-4.6233-2.1258c7.6235,17.4027,20.6196,28.8683,35.3752,28.8683,14.9347,0,28.0614-11.7511,35.6448-29.5097l-.6086-.7354Z" style="fill:#B28B2F;"></path><polygon points="87.6443 187.8255 74.7711 192.5868 77.354 184.8381 71.1995 193.9078 65.0547 196.1808 64.6162 170.734 86.9805 141.0212 74.9949 153.0067 77.0221 144.6728 71.2887 156.7132 64.4915 163.5102 63.8061 123.7537 61.3698 181.7372 40.1764 159.2784 51.8178 175.1035 40.8402 173.8839 54.4003 178.6141 61.1174 187.7452 59.9428 215.7017 52.1264 210.3977 59.6996 221.4876 56.1095 365.4996 66.9643 365.4996 65.1249 200.2401 87.6443 187.8255" style="fill:#263238;"></polygon><g><path d="M87.1948,123.8794s.3932,3.906-1.7419,6.7731c-2.1349,2.8675-5.9895,3.6106-5.9895,3.6106,0,0-.3932-3.906,1.7417-6.7733,2.135-2.8675,5.9897-3.6104,5.9897-3.6104Z" style="fill:#fff;"></path><path d="M100.0083,141.8827s.3934,3.9058-1.7416,6.7733c-2.135,2.8674-5.9897,3.6103-5.9897,3.6103,0,0-.3932-3.9058,1.7419-6.7731,2.135-2.8675,5.9894-3.6105,5.9894-3.6105Z" style="fill:#fff;"></path><path d="M100.0029,176.9353s-.9443,3.8102-3.9202,5.7915c-2.9754,1.9814-6.8552,1.3835-6.8552,1.3835,0,0,.9446-3.8102,3.9202-5.7916s6.8552-1.3834,6.8552-1.3834Z" style="fill:#fff;"></path><path d="M29.6307,176.9353s.9446,3.8102,3.9201,5.7915c2.9759,1.9814,6.8554,1.3835,6.8554,1.3835,0,0-.9445-3.8102-3.9201-5.7916s-6.8554-1.3834-6.8554-1.3834Z" style="fill:#fff;"></path><path d="M85.2033,162.3851s.393,3.906-1.742,6.7731c-2.1349,2.8675-5.9896,3.6104-5.9896,3.6104,0,0-.3933-3.9057,1.7418-6.7732,2.1351-2.8673,5.9898-3.6103,5.9898-3.6103Z" style="fill:#fff;"></path><path d="M81.8838,104.2948s.3931,3.9057-1.7418,6.7731c-2.1352,2.8674-5.9897,3.6104-5.9897,3.6104,0,0-.3931-3.9058,1.7417-6.7732,2.1351-2.8674,5.9898-3.6103,5.9898-3.6103Z" style="fill:#fff;"></path><path d="M74.249,119.2322s.3933,3.9058-1.7419,6.7733c-2.135,2.8675-5.9897,3.6103-5.9897,3.6103,0,0-.3932-3.906,1.7419-6.7733,2.135-2.8672,5.9897-3.6103,5.9897-3.6103Z" style="fill:#fff;"></path><path d="M92.3737,108.3562s.3932,3.906-1.7418,6.7735c-2.135,2.8671-5.9896,3.6102-5.9896,3.6102,0,0-.3931-3.9059,1.7417-6.7732,2.135-2.8674,5.9897-3.6105,5.9897-3.6105Z" style="fill:#fff;"></path><path d="M33.4767,108.3562s-.393,3.906,1.7418,6.7735c2.135,2.8671,5.9897,3.6102,5.9897,3.6102,0,0,.3931-3.9059-1.7418-6.7732-2.1351-2.8674-5.9897-3.6105-5.9897-3.6105Z" style="fill:#fff;"></path><path d="M83.5434,86.0376s.3931,3.906-1.7416,6.7733c-2.135,2.8674-5.9898,3.6105-5.9898,3.6105,0,0-.3931-3.9059,1.7418-6.7733,2.1348-2.8674,5.9896-3.6105,5.9896-3.6105Z" style="fill:#fff;"></path><path d="M79.7914,66.644s1.3619,3.682,.0158,6.9938c-1.346,3.3116-4.8905,4.9992-4.8905,4.9992,0,0-1.3619-3.6817-.0158-6.9934,1.3461-3.3119,4.8905-4.9996,4.8905-4.9996Z" style="fill:#fff;"></path><path d="M52.9068,61.5764s3.4774,1.8215,4.6962,5.1823c1.219,3.3606-.2823,6.9877-.2823,6.9877,0,0-3.4774-1.8214-4.6962-5.1822-1.219-3.3607,.2823-6.9878,.2823-6.9878Z" style="fill:#fff;"></path><path d="M65.4438,84.7673s2.4773,3.0453,2.2719,6.6142c-.2051,3.5689-3.0153,6.3102-3.0153,6.3102,0,0-2.4772-3.0454-2.2719-6.6142,.2053-3.569,3.0153-6.3102,3.0153-6.3102Z" style="fill:#fff;"></path><path d="M64.7799,50.245s2.4772,3.0454,2.2722,6.6142c-.2055,3.5691-3.0157,6.3102-3.0157,6.3102,0,0-2.4773-3.0453-2.2718-6.6142,.2053-3.569,3.0153-6.3102,3.0153-6.3102Z" style="fill:#fff;"></path><path d="M36.6425,123.8794s-.3932,3.906,1.7417,6.7731c2.1351,2.8675,5.9898,3.6106,5.9898,3.6106,0,0,.3931-3.906-1.7418-6.7733-2.1351-2.8675-5.9897-3.6104-5.9897-3.6104Z" style="fill:#fff;"></path><path d="M29.3396,145.124s-.3932,3.9057,1.742,6.7732c2.1348,2.8673,5.9896,3.6102,5.9896,3.6102,0,0,.3931-3.9057-1.742-6.7731-2.1348-2.8674-5.9896-3.6103-5.9896-3.6103Z" style="fill:#fff;"></path><path d="M48.7248,152.8369s-.3932,3.906,1.7418,6.7732c2.135,2.8674,5.9897,3.6104,5.9897,3.6104,0,0,.3932-3.9058-1.7419-6.7731-2.135-2.8675-5.9896-3.6105-5.9896-3.6105Z" style="fill:#fff;"></path><path d="M54.025,123.4s-1.4955,3.6298-.2711,6.9885c1.2246,3.3588,4.7051,5.1743,4.7051,5.1743,0,0,1.4952-3.6296,.2706-6.9883-1.2243-3.3587-4.7046-5.1745-4.7046-5.1745Z" style="fill:#fff;"></path><path d="M40.298,201.7302s3.9249,.0717,6.6077-2.2911c2.6826-2.3629,3.1073-6.2655,3.1073-6.2655,0,0-3.9251-.0716-6.6079,2.2911-2.6825,2.3629-3.1071,6.2655-3.1071,6.2655Z" style="fill:#fff;"></path><path d="M77.9613,197.4368s1.0663,3.7779,4.104,5.663c3.0375,1.8848,6.896,1.1627,6.896,1.1627,0,0-1.0662-3.7779-4.1037-5.6628-3.0376-1.8849-6.8963-1.1629-6.8963-1.1629Z" style="fill:#fff;"></path><path d="M44.6765,104.2948s-.3932,3.9057,1.742,6.7731c2.1349,2.8674,5.9894,3.6104,5.9894,3.6104,0,0,.3934-3.9058-1.7416-6.7732-2.1351-2.8674-5.9898-3.6103-5.9898-3.6103Z" style="fill:#fff;"></path><path d="M44.6093,87.0335s-.3932,3.9058,1.7416,6.7733c2.135,2.8673,5.9897,3.6104,5.9897,3.6104,0,0,.3931-3.906-1.7419-6.7733-2.1347-2.8673-5.9894-3.6104-5.9894-3.6104Z" style="fill:#fff;"></path></g></g></g><g id="freepik--Fence--inject-2"><g><g><rect x="54.1545" y="295.1585" width="399.60859" height="10.3088" style="fill:#fff; stroke:#263238; stroke-miterlimit:10;"></rect><rect x="54.1545" y="331.1463" width="399.60859" height="10.3088" style="fill:#fff; stroke:#263238; stroke-miterlimit:10;"></rect><polygon points="53.802 277.3655 48.4557 269.964 43.5172 277.3655 43.5172 365.5509 53.802 365.5509 53.802 277.3655" style="fill:#fff; stroke:#263238; stroke-miterlimit:10;"></polygon><polygon points="258.92739 277.3655 253.58109 269.964 248.64269 277.3655 248.64269 365.5509 258.92739 365.5509 258.92739 277.3655" style="fill:#fff; stroke:#263238; stroke-miterlimit:10;"></polygon><polygon points="464.05289 277.3655 458.70659 269.964 453.76819 277.3655 453.76819 365.5509 464.05289 365.5509 464.05289 277.3655" style="fill:#fff; stroke:#263238; stroke-miterlimit:10;"></polygon></g><line x1="28.222" y1="365.5955" x2="484.18649" y2="365.5955" style="fill:none; stroke:#263238; stroke-miterlimit:10;"></line></g></g><g id="freepik--Floor--inject-2"><line x1="28.222" y1="410.6964" x2="484.18649" y2="410.6964" style="fill:none; stroke:#263238; stroke-miterlimit:10;"></line></g><g id="freepik--Shadow--inject-2"><ellipse cx="253.06119" cy="435.2496" rx="205.32799" ry="4.3136" style="fill:#263238; stroke:#263238; stroke-miterlimit:10;"></ellipse></g><g id="freepik--Character--inject-2"><g><path d="M75.0862,201.3656s-1.0385-6.3465-4.8464-9.462-7.9619-4.5002-7.9619-4.5002c0,0,2.3078,8.6543,4.0386,10.8467,1.7309,2.1924,8.5389,5.4233,8.5389,5.4233l.2308-2.3078Z" style="fill:#263238; stroke:#263238; stroke-miterlimit:10;"></path><path d="M152.4027,312.3316s-4.99,10.2068-10.4336,16.5578c-5.4436,6.3509-18.8259,15.4236-21.5477,19.2795-2.7219,3.8559-3.1755,10.4336-2.7219,15.4236,.4537,4.99,1.1341,24.2696,1.1341,30.3937s5.2169,8.1654,6.3509,9.5263c1.1341,1.3609,3.1755,6.5778,5.4437,9.0728,2.2682,2.495,11.1141,9.2995,12.9286,8.6191,1.8146-.6805,3.6291-12.9287,2.495-16.331-1.1341-3.4022-4.5363-6.124-6.3509-5.2168-1.8145,.9073-5.2168,.9073-5.8973,.6805-.6804-.2268-1.1341-.6805-1.1341-1.8146s0-2.495-.2268-4.5363c-.2268-2.0414-4.5363-12.9287-4.5363-19.5064s2.495-15.1968,2.495-15.1968l3.6291-4.99s28.3522-13.6091,34.93-14.97c6.5777-1.3609,9.2995-2.2682,12.0213-4.99,2.7218-2.7218,4.3096-8.1655,4.3096-8.1655,0,0-30.1669-12.0213-32.8887-13.8359Z" style="fill:#263238; stroke:#263238; stroke-miterlimit:10;"></path><path d="M139.7009,399.6566c-1.8145,.9073-5.2168,.9073-5.8973,.6804-.6804-.2268-1.134-.6804-1.134-1.8145s0-2.495-.2269-4.5364c-.2268-2.0413-4.5363-12.9286-4.5363-19.5063,0-1.0904,.073-2.2378,.1874-3.3918h-9.9546c.3576,7.7744,.6944,18.5897,.6944,22.8981,0,6.1241,5.2169,8.1655,6.351,9.5264,1.134,1.3609,3.1754,6.5778,5.4436,9.0728,2.2682,2.495,11.114,9.2995,12.9286,8.619,1.8145-.6804,3.6291-12.9286,2.495-16.3309s-4.5364-6.1241-6.3509-5.2168Z" style="fill:#bababa; stroke:#263238; stroke-miterlimit:10;"></path><g><path d="M370.96809,264.9658s-2.8147,28.3634-6.0624,42.0038c-3.2478,13.6405-4.3303,14.9396-3.4643,17.9708,.8661,3.0312,3.8973,14.0734,9.09361,20.7854,5.19639,6.7119,9.52669,10.3927,9.52669,15.8055s.433,46.1176,1.7321,51.5305,.8661,8.6606-.433,10.1762-9.7432,0-11.4753,2.1651c-1.7321,2.1652-1.9486,3.6808-2.3817,5.4129-.433,1.7321,1.5156,.866-.433,1.7321s-18.6202,0-18.6202,0c0,0,2.5981-6.9285,5.4128-9.0936,2.8147-2.1652,9.7432-1.2991,12.5579-6.712,2.81471-5.4128,1.2991-36.3744-.6496-42.4368-1.9486-6.0624-1.5156-5.1964-9.3101-13.2074s-19.0533-21.2184-22.301-33.3433c-3.2477-12.1248,9.7296-15.948,15.792-21.7939,6.06241-5.8459,15.5771-14.7904,21.0155-40.9953Z" style="fill:#263238; stroke:#263238; stroke-miterlimit:10;"></path><path d="M366.42129,416.7426c-2.8147,5.4128-9.7432,4.5467-12.5579,6.7119-2.8147,2.1651-5.4128,9.0936-5.4128,9.0936,0,0,16.6716,.866,18.6202,0,1.9486-.8661,0,0,.433-1.7321,.4331-1.7321,.6496-3.2478,2.3817-5.4129s10.1762-.6496,11.4753-2.1651c1.2991-1.5157,1.7321-4.7633,.433-10.1762-.509-2.1209-.8846-9.6656-1.1537-18.3769l-12.807-.4002c.3513,9.6592,.0714,19.6056-1.4118,22.4579Z" style="fill:#bababa; stroke:#263238; stroke-miterlimit:10;"></path><path d="M367.72389,429.9135c-5.03789-2.4079-11.1676-4.711-14.4746-5.9041-2.567,2.5955-4.7987,8.5387-4.7987,8.5387,0,0,16.6716,.866,18.6202,0,1.9486-.8661,0,0,.433-1.7321,.0766-.3062,.1476-.605,.2201-.9025Z" style="fill:#263238; stroke:#263238; stroke-miterlimit:10;"></path></g><path d="M456,364.2825s-.42-5.23-3.56-8.58c-3.14-3.35-12.56-7.54-12.56-7.54,0,0,5.23,6.2801,7.74,15.7,2.52,9.43,1.47,10.05,1.47,10.05l-2.89-5.01c.49,1.13,1.53,4.9101,1.21,16.5301-.41,15.0799-2.93,10.0499-2.93,10.0499,0,0-3.14-7.96-8.58-11.0999-5.45-3.14-8.8-2.51-16.96-12.3501-8.17-9.8399-11.73-33.08-12.57-34.76-.83-1.68-10.68-6.7-19.47-29.5199-8.79-22.8301-3.35-34.3501-7.54-47.3301-4.19-12.9799-13.82-11.9299-13.82-11.9299,0,0,1.05,2.0899,3.14,5.8599,2.1,3.7701,5.66,17.17,0,33.92-5.65,16.75-19.89,30.99-19.89,30.99l.84,7.96s9.42,12.7701,13.19,15.9101c3.77,3.1399,5.65,3.9799,7.12,9.43,1.46,5.44-7.75,11.0899-7.75,11.0899,0,0-18.22,29.5301-19.05,31.2-.84,1.68-1.47,2.31-2.52,6.91-1.04,4.6101-3.56,6.08-3.56,6.91,0,.84,6.08,2.5201,7.75,5.03,1.68,2.51-3.56,15.7-5.02,17.8001-1.47,2.0899-10.47-7.5401-10.47-11.7301s-2.1-9.8399-2.94-14.24c-.83-4.3999,1.89-6.07,5.03-12.3499,3.14-6.2801,14.45-26.18,14.24-33.3-.21-7.1201-10.05-10.6701-22.62-20.9301-12.56-10.2699-18.63-22.62-19.47-23.67-.84-1.0399-6.28-.62-12.14,1.89-5.87,2.5101-27.64,10.05-41.88,11.31-14.24,1.25-41.25,.8301-41.25,.8301,0,0,2.51,26.18,2.93,33.5099,.42,7.32,.42,17.38-.84,22.82s2.09,23.66,2.51,26.1701c.42,2.5199,.21,5.0299-2.09,9.6399-2.3,4.6-7.33,3.97-7.33,3.97,0,0-2.72,1.8901-3.35,3.7701-.63,1.8899-1.67,4.8199-3.56,5.6599-1.88,.8301-14.03,.2101-15.08-.21-1.04-.42,1.89-6.07,3.56-8.17,1.68-2.0899,9.01-2.7199,11.94-6.07,2.93-3.35,5.44-10.26,5.65-13.82s-4.81-22.41-6.49-30.99c-1.67-8.5899-11.51-43.76-11.51-43.76,0,0-2.94-1.68-12.36-4.3999-9.42-2.7201-21.78-11.31-21.78-11.31,0,0-3.97-4.19-7.74-10.68-3.77-6.4901-3.35-22.6101-3.35-23.8701,0-1.2599,1.25-8.17-6.29-19.05-7.53-10.8899-19.26-30.7799-19.26-30.7799,0,0-2.72,8.7899-9.21,14.0199-6.49,5.2401-6.49,8.1701-6.28,10.47,.05,.56,.29,1.49,.62,2.62,.16,.5301,.33,1.11,.51,1.7101,.05,.1999,.11,.3999,.18,.6099,.01,.03,.01,.05,.02,.0801,.08,.2899,.17,.5799,.25,.88,.07,.2599,.15,.5299,.22,.7899,.13,.49,.25,.98,.37,1.4601,.07,.3,.14,.5999,.2,.8999,.03,.1501,.06,.29,.09,.44,.35,1.83,.47,3.49,.05,4.54-1.26,3.14-4.4,2.52-4.4,2.52,0,0-.84,3.3501-2.93,2.7201-1.94-.5901-1.54-9.1401-1.48-10.3301l-.82,7.8201s-1.68,3.14-4.4,3.14-9.75-1.26-11.64-3.3501c-.07-.08-.14-.1599-.19-.24-1.4-1.9199,.43-4.5999-.06-9.77-.03-.41-.09-.85-.16-1.3-.95-5.86-3.4-24.25-3.04-34.33,.33-9.32-4.34-11.88-1.24-20.32,3.05-8.3299,12.77-13.8199,12.77-13.8199,0,0,2.51-2.9301,4.81-2.9301,2.31,0,5.24-.42,5.24-.42,0,0,1.05-1.26,2.72-2.31,1.68-1.04,6.91,.42,6.91,.42,0,0,.84-1.04,2.72-1.8799,1.89-.8401,6.29,1.05,6.29,1.05,0,0,1.67-1.4701,3.76-2.1001,2.1-.63,5.66,1.68,5.66,1.68,0,0,2.09-1.05,4.61-.84,2.51,.2101,5.65,3.1401,5.65,3.1401,0,0,2.3-.63,4.19-.63,1.88,0,3.98,3.9799,3.98,3.9799,0,0,1.25-.4199,4.6-.4199s6.28,4.3999,6.28,4.3999c0,0,3.35-1.47,5.45-1.05,2.09,.42,3.14,3.77,3.14,3.77,0,0,3.56-.4199,5.44,.6301,1.89,1.0499,2.52,3.7699,2.52,3.7699,0,0,2.93-.21,5.02,.63,2.1,.83,3.98,4.81,3.98,4.81,0,0,2.3-.2099,4.82,1.0501,2.51,1.2599,3.56,5.2299,3.56,5.2299,0,0,3.35,.42,5.65,2.1,2.3,1.6701,2.3,3.77,2.3,3.77,0,0,3.77,.2101,5.45,1.88,1.67,1.68,5.65,1.47,5.65,1.47,0,0,8.59,9.21,31.83,14.03,23.24,4.81,39.99-2.0999,39.99-2.0999,0,0,3.14-.63,11.1-2.0901,7.96-1.47,23.24-5.45,42.72-5.03,19.47,.4201,34.34,12.9901,34.34,12.9901,0,0,7.33-1.4701,15.91,2.5099,8.59,3.9801,16.96,22.4,19.68,33.9201,2.73,11.5199,5.66,23.0299,21.78,38.7399,16.12,15.7001,21.15,10.8901,30.57,25.3301,9.43,14.4499,4.4,21.7799,4.4,21.7799Z" style="fill:#B28B2F; stroke:#263238; stroke-miterlimit:10;"></path><path d="M113.85,231.7426s1.6102-2.7427-.2286-10.4323" style="fill:none; stroke:#263238; stroke-miterlimit:10;"></path><path d="M181.48,434.6425c1.05,.4201,13.2,1.0401,15.08,.21,1.89-.84,2.93-3.77,3.56-5.6599,.63-1.88,3.35-3.7701,3.35-3.7701,0,0,5.03,.63,7.33-3.97,2.3-4.61,2.51-7.12,2.09-9.6399-.27921-1.6684-1.85171-10.2759-2.50561-17.4595-4.0548-.294-7.4568-.7667-10.285-1.3587,1.4362,6.2202,2.6355,11.8105,2.53061,13.5881-.21,3.56-2.72,10.47-5.65,13.82-2.93,3.3501-10.26,3.9801-11.94,6.07-1.67,2.1-4.6,7.75-3.56,8.17Z" style="fill:#fff; stroke:#263238; stroke-miterlimit:10;"></path><path d="M329.32,419.7725c0,4.19,9,13.82,10.47,11.7301,1.46-2.1001,6.7-15.2901,5.02-17.8001-1.67-2.5099-7.75-4.19-7.75-5.03,0-.83,2.52-2.2999,3.56-6.91,1.05-4.6,1.68-5.23,2.52-6.91,.28849-.5805,2.67989-4.5299,5.67539-9.4328l-11.042-4.4917c-2.5873,5.1286-5.1181,9.7638-6.36339,12.2546-3.14,6.2799-5.86,7.95-5.03,12.3499,.84,4.4001,2.94,10.05,2.94,14.24Z" style="fill:#fff; stroke:#263238; stroke-miterlimit:10;"></path><path d="M339.79,431.5026c1.46-2.1001,6.7-15.2901,5.02-17.8001-.60721-.9126-1.79891-1.7142-3.068-2.4069-4.41861,2.7608-8.60461,8.0765-11.25681,11.9089,2.4823,4.4765,8.1632,9.9211,9.30481,8.2981Z" style="fill:#263238; stroke:#263238; stroke-miterlimit:10;"></path><path d="M203.68019,224.1998s-3.9785,.2094-5.6536-1.4657c-1.6752-1.6752-5.4443-1.8846-5.4443-1.8846,0,0,0-2.0939-2.3033-3.7691-2.3033-1.6751-5.6536-2.0939-5.6536-2.0939,0,0-1.047-3.9785-3.5597-5.2349-2.5127-1.2563-4.8161-1.0469-4.8161-1.0469,0,0-1.8845-3.9785-3.9784-4.8161-2.094-.8376-5.0255-.6282-5.0255-.6282,0,0-.6281-2.7221-2.5127-3.7691-1.8846-1.0469-5.4442-.6281-5.4442-.6281,0,0-1.047-3.3503-3.141-3.7691-2.0939-.4188-5.4442,1.047-5.4442,1.047,0,0-2.9315-4.3973-6.2818-4.3973s-4.6067,.4188-4.6067,.4188c0,0-2.0939-3.9785-3.9784-3.9785-1.8846,0-4.1879,.6282-4.1879,.6282,0,0-3.1409-2.9315-5.6536-3.1409-2.5128-.2094-4.6067,.8376-4.6067,.8376,0,0-3.5597-2.3034-5.6536-1.6752-2.094,.6282-3.7691,2.0939-3.7691,2.0939,0,0-4.3973-1.8845-6.2818-1.0469-1.8846,.8375-2.7221,1.8845-2.7221,1.8845,0,0-5.2349-1.4657-6.91-.4187-1.6752,1.0469-2.7222,2.3032-2.7222,2.3032,0,0-2.9314,.4189-5.2348,.4189s-4.816,2.9315-4.816,2.9315c0,0,21.5675-6.4912,35.5969-4.6067s42.5069,13.4012,56.3268,22.4051c13.82,9.0039,18.0079,11.9355,23.8709,14.4482,5.8631,2.5127,8.5852,3.3503,8.5852,3.3503l.1388-1.1107c-2.8543-1.9354-4.1173-3.2866-4.1173-3.2866Z" style="fill:#263238; stroke:#263238; stroke-miterlimit:10;"></path><path d="M100.87,270.2625c-1.26,3.14-4.4,2.52-4.4,2.52,0,0-.84,3.3501-2.93,2.7201-1.94-.5901-1.54-9.1401-1.48-10.3301l-.82,7.8201s-1.68,3.14-4.4,3.14-9.75-1.26-11.64-3.3501c-.07-.08-.14-.1599-.19-.24-1.4-1.9199,.43-4.5999-.06-9.77,.88-.93,2.47-2.04,4.85-1.3899,3.87,1.0399,9.12-.8401,12.05-2.5201,2.23-1.27,5.01-1.03,7.13-.01,.16,.5301,.33,1.11,.51,1.7101,.06,.1999,.12,.3999,.18,.6099,.01,.03,.01,.05,.02,.0801,.09,.2899,.17,.5799,.25,.88,.07,.2599,.15,.5299,.22,.7899,.13,.49,.25,.98,.37,1.4601,.07,.3,.14,.5999,.2,.8999,.03,.1501,.06,.29,.09,.44,.35,1.83,.47,3.49,.05,4.54Z" style="fill:#bababa; stroke:#263238; stroke-miterlimit:10;"></path><g><path d="M85.3728,191.9532s3.1409,3.1409,4.816,9.8415c1.6752,6.7006,1.8846,15.2857,1.8846,15.2857-4.816-.235-14.4912,3.241-16.2949,4.5938-2.3078,1.7308-4.0163,4.6196-4.0163,4.6196,0,0-3.5597-8.7946-2.9315-15.2858s3.5597-8.5851,3.5597-8.5851c0,0-2.9315-3.9785-3.1409-10.2603s.2094-9.0039,.2094-9.0039c0,0,4.816,3.7691,6.2818,7.1194,1.4657,3.3503,2.0939,5.4442,2.0939,5.4442,0,0,4.8161-1.8846,7.5382-3.7691Z" style="fill:#263238; stroke:#263238; stroke-miterlimit:10;"></path><path d="M69.4589,183.1586s-.4188,2.7222-.2094,9.004,3.1409,10.2603,3.1409,10.2603c0,0,1.1957,.6735,3.0419,2.1736,1.8463,1.5001,4.1541,2.4232,4.1541,2.4232l-1.7518-11.2974s-.6282-2.0939-2.0939-5.4443c-1.4658-3.3503-6.2818-7.1194-6.2818-7.1194Z" style="fill:none; stroke:#263238; stroke-miterlimit:10;"></path></g><path d="M99.5221,268.3052s-5.1855-5.2198-5.719-5.9819-.686-1.3719-1.6006-1.753-.8384-.4573-1.3719-.7622c-.4785-.2734-.7597-.652-.8153-.7307,.2683-.3475,.4342-.7779,.4342-1.2509,0-1.1366-.9213-2.0579-2.0578-2.0579-1.1366,0-2.0579,.9213-2.0579,2.0579,0,1.1365,.9213,2.0578,2.0579,2.0578,.299,0,.5812-.0669,.8375-.1815,.3464,.3422,.783,.8191,.9155,1.1724,.2286,.6097,.6097,1.753,1.2194,2.1341,.6098,.381,1.6768,.7621,1.6768,.7621l5.0249,5.3121c-.1868,.2787-.2963,.6136-.2963,.9742,0,.9679,.7847,1.7525,1.7526,1.7525s1.7525-.7846,1.7525-1.7525-.7846-1.7525-1.7525-1.7525Z" style="fill:#fff; stroke:#263238; stroke-miterlimit:10;"></path><path d="M93.3188,244.2065s-21.6741,.2094-22.1976,1.2565,0,4.607,1.0471,5.0259c1.047,.4188,22.3022-.2095,22.3022-.2095l-1.1517-6.0729Z" style="fill:#263238; stroke:#263238; stroke-miterlimit:10;"></path><path d="M79.2774,194.6992s5.318,13.1742,5.8015,28.2821c.4834,15.108,2.4721,34.6743,2.4721,34.6743l1.4504-.3626s-1.8678-34.6742-1.747-35.762c.1209-1.0878,.3626-2.7799,.3626-2.7799,0,0,3.6259,17.1627,4.5928,23.5684,.9669,6.4058,.8461,9.1857,.8461,9.1857l2.659-.1209s-1.4504-3.2633-1.5713-10.9986c-.1208-7.7353-2.4172-15.954-2.4172-15.954,0,0,8.0978,10.9986,10.1525,12.9324,2.0547,1.9338,6.5267,4.2303,6.5267,4.2303l1.8129-1.5713s-4.2302-.2417-8.823-6.5266c-4.5928-6.2849-11.2404-16.0749-12.8116-19.7008s-4.9554-14.5036-5.5597-16.8c-.6043-2.2965-1.2086-3.8677-1.2086-3.8677l-2.5382,1.5712Z" style="fill:#263238; stroke:#263238; stroke-miterlimit:10;"></path><path d="M97.2474,255.802c-.7102,1.824-2.425,1.714-4.3079,.981-1.8828-.733-3.2206-1.8116-2.5105-3.6355,.7101-1.824,2.8121-2.7084,4.695-1.9754,1.8828,.733,2.8335,2.8059,2.1234,4.6299Z" style="fill:#fff; stroke:#263238; stroke-miterlimit:10;"></path><path d="M104.2031,267.6649c0,1.2407-1.0057,2.2464-2.2463,2.2464-1.2407,0-2.2464-1.0057-2.2464-2.2464,0-1.2406,1.0057-2.2463,2.2464-2.2463,1.2406,0,2.2463,1.0057,2.2463,2.2463Z" style="fill:#fff; stroke:#263238; stroke-miterlimit:10;"></path><path d="M80.4565,228.8109c-.6098,1.3581-4.2747,2.274-4.2747,2.274,0,0-1.2532-3.1243-.6434-4.4824s4.1234-1.7704,4.1234-1.7704c0,0,1.4045,2.6207,.7947,3.9788Z" style="fill:#263238; stroke:#263238; stroke-miterlimit:10;"></path><path d="M77.7715,232.276s3.8331-.3067,4.3698-3.7565" style="fill:none; stroke:#263238; stroke-miterlimit:10;"></path><path d="M80.7418,271.5346s.5235-1.9894-2.1988-2.4082c-2.7224-.4188-2.4082,1.1518-.8377,2.1988,1.5706,1.0471,3.4553,2.7224,3.0365,.2094Z" style="fill:#263238; stroke:#263238; stroke-miterlimit:10;"></path><path d="M158.9714,299.6223c.831,3.2773,2.2728,6.9344,4.7722,9.5339,5.6705,5.8972,15.6505,9.7532,15.6505,9.7532l3.8559,10.2068" style="fill:none; stroke:#263238; stroke-miterlimit:10;"></path><path d="M157.8464,291.918s.0367,1.8386,.4508,4.4202" style="fill:none; stroke:#263238; stroke-miterlimit:10;"></path><path d="M208.29,329.3126s1.72449-21.0637,2.17819-22.6514" style="fill:none; stroke:#263238; stroke-miterlimit:10;"></path><path d="M297.29079,279.6182c.5001-2.9326,.956-4.9384,.956-4.9384" style="fill:none; stroke:#263238; stroke-miterlimit:10;"></path><path d="M302.78319,313.2389s-4.76319-7.7118-6.3509-15.6505c-.8056-4.0277-.3266-9.8654,.3408-14.6396" style="fill:none; stroke:#263238; stroke-miterlimit:10;"></path><path d="M146.0518,404.8734c-1.0105-3.0316-3.8193-5.5155-5.7036-5.3805-.9,3.3712-2.984,9.6085-7.1631,15.4474,3.5267,2.9556,8.9886,6.7827,10.3717,6.264,1.8145-.6804,3.6291-12.9286,2.495-16.3309Z" style="fill:#263238; stroke:#263238; stroke-miterlimit:10;"></path><path d="M196.56,434.8525c1.67869-.7461,2.68479-3.1374,3.33069-4.9879-5.199-2.4419-11.1024-3.449-14.3624-3.8445-.1895,.1443-.3601,.293-.4883,.4524-1.67,2.1-4.6,7.75-3.56,8.17,1.05,.4201,13.2,1.0401,15.08,.21Z" style="fill:#263238; stroke:#263238; stroke-miterlimit:10;"></path><path d="M211.84259,222.4131s-2.1353-4.9275-5.256-4.599c-3.1208,.3285-5.4203,3.4492-6.4058,11.3332s-3.4492,29.4008,.8213,39.5843c4.2705,10.1834,10.6762,16.7534,21.8452,17.9032,11.169,1.1497,30.879-4.9275,44.1832-6.0773,13.3043-1.1497,17.2463-.9855,18.5603-10.512,1.314-9.5264-3.942-36.6277-6.57-38.1059-2.628-1.4783-9.198,.657-9.198,.657,0,0-29.8935,3.4492-42.048-1.4783s-15.9322-8.7052-15.9322-8.7052Z" style="fill:#fff; stroke:#263238; stroke-miterlimit:10;"></path><path d="M217.09859,274.1518s-4.1063,50.2604-4.599,52.7242c-.4928,2.4637-.9855,3.285-.1643,3.285,.8213,0,4.2705,0,4.7633-.3285,.4927-.3285,13.14-49.4392,13.14-49.4392l-4.599-.3285-8.3768,34.821,2.9565-37.7775-3.1207-2.9565Z" style="fill:#263238; stroke:#263238; stroke-miterlimit:10;"></path><path d="M230.56709,225.6981s-6.4058-1.1498-10.512-3.4493c-4.1063-2.2995-10.0193-2.2995-12.8115,2.1353-2.7923,4.4347-3.1208,26.28,1.1497,37.2847s10.1835,20.0385,18.5603,20.6955c8.3767,.657,15.768,3.1207,20.69541-7.3913,4.92749-10.5119,1.64249-25.7872,3.942-30.0577,2.29949-4.2705,9.52649-3.1207,13.797-3.942,4.27049-.8212,9.36229-2.1352,7.71979-6.8985-1.6425-4.7632-5.913-5.913-5.913-5.913,0,0,5.42021-8.2125,3.7777-9.198-1.64249-.9855-4.92749-.8212-6.0772,.4928-1.1498,1.314-3.6637,6.8825-3.6637,6.8825,0,0,1.52841,.8372-8.1623,1.8227-9.6907,.9855-22.5022-2.4637-22.5022-2.4637Z" style="fill:#263238; stroke:#263238; stroke-miterlimit:10;"></path><path d="M261.28179,209.9301s5.5845,10.6762,3.942,12.3187-5.913,2.1353-5.913,2.1353l-2.46379-16.9177s1.971,.1642,4.43479,2.4637Z" style="fill:#263238; stroke:#263238; stroke-miterlimit:10;"></path><polygon points="199.20289 205.0098 199.484 209.9284 227.02819 206.2746 227.30919 204.3071 199.20289 205.0098" style="fill:#263238;"></polygon><path d="M225.51129,214.5859l1.1523,10.4857s-5.5309,13.8272-6.568,17.7449c-1.037,3.9177-.9218,7.1441,.1153,8.8725,1.037,1.7284,5.1852,4.7243,9.9095,4.0329s8.4115-4.0329,11.7531-7.9506c3.3416-3.9178,8.7572-10.8314,11.7531-12.675s6.1071-1.8436,7.605-8.7572-1.3827-13.1359-1.84359-14.9795c-.46091-1.8436-.57621-4.4939-.57621-4.4939l.1153-2.6502s-2.07409-1.9588-7.9507,0c-5.8766,1.9589-25.4651,10.3704-25.4651,10.3704Z" style="fill:#fff; stroke:#263238; stroke-miterlimit:10;"></path><g><path d="M248.89679,127.9092s-.4807,2.5962-1.3461,3.6539-2.9808,2.5962-2.1154,3.5577c.8654,.9616,1.6346,1.0577,1.6346,1.0577,0,0-.1923,5.6732-.1923,7.5963s.2885,2.5,.9615,2.5962c.6731,.0961,1.3462-.0962,1.3462-.0962l.9616,2.4039,1.8269,2.0192,.09621,1.5385s5.67309-3.6539,7.98079-3.6539,7.7886,.1923,7.7886,.1923l1.0577-5.7693s3.65391-7.4039,3.75-7.7885c.0962-.3847,1.827-2.1154-4.5193-5.2886-6.3462-3.1731-17.404-3.6538-17.7886-3.6538s-1.4424,1.6346-1.4424,1.6346Z" style="fill:#fff; stroke:#263238; stroke-linecap:round; stroke-linejoin:round;"></path><path d="M259.858,131.0028s2.838,3.311,2.99559,5.9913c.1577,2.6802-1.8919,6.9372-2.3649,7.4102s6.884,1.1441,8.4084-1.3988c1.5244-2.5428,2.7857-9.1647,2.7857-9.7954,0-.6306-11.82479-2.2073-11.82479-2.2073Z" style="fill:#8f8f8f; stroke:#263238; stroke-miterlimit:10;"></path><path d="M266.78169,146.9479s-8.1732,.1923-10.8655,1.4423c-2.6924,1.25-8.8463,7.7886-9.904,8.8463s-4.2308,5.8654-4.2308,5.8654c0,0,2.3077,.577,6.5385-2.0192s9.8078-7.0193,11.6348-7.6924c1.8269-.6731,7.5001-1.1539,7.5001-1.1539l-.6731-5.2885Z" style="fill:#fff; stroke:#263238; stroke-miterlimit:10;"></path><path d="M267.35859,149.8325s-3.75-.1923-7.4039,1.3462-18.1733,11.9232-18.1733,11.9232c0,0-10.0963,8.654-12.1156,11.154-2.0192,2.5-1.5384,6.5385-1.0577,8.1732,.4808,1.6346,.8654,4.7116,.8654,4.7116,0,0-6.827,28.0772-6.9231,29.3273-.0962,1.25,2.6923,1.25,8.1731-.1924,5.4809-1.4423,16.4426-3.9423,21.2503-4.5192,4.8078-.577,4.327-1.5385,4.327-2.7885,0-1.2501,.2884-2.5001,.2884-2.5001,0,0,6.2501,6.3463,9.13481,8.3655,2.88459,2.0193,3.26919,4.7116,3.26919,4.7116,0,0,1.0577,.1923,4.327-.4808,3.2693-.673,6.2501-3.75,6.2501-3.75,0,0-17.0194-6.7309-18.17329-8.077-1.15391-1.3462-1.05771-2.4039-1.05771-2.4039,0,0,1.8269-6.0578,2.5-8.077,.6731-2.0193,4.8078-15.6733,5.577-22.5003,.7693-6.827-.0961-22.0195-1.0577-24.4234Z" style="fill:#263238; stroke:#263238; stroke-miterlimit:10;"></path><path d="M248.12759,139.3516s1.9231-.1923,3.1731-1.5384" style="fill:none; stroke:#263238; stroke-linecap:round; stroke-linejoin:round;"></path><path d="M250.72379,131.6112c0,.6107-.27979,1.1057-.625,1.1057s-.625-.495-.625-1.1057c0-.6108,.2798-1.1058,.625-1.1058s.625,.495,.625,1.1058Z" style="fill:#263238;"></path><path d="M260.62779,133.2939s2.01921-1.1538,2.8846-1.0577c.8654,.0961,1.25,2.1154,.4808,3.9423-.7693,1.827-3.077,3.6539-3.84619,3.3654-.76931-.2884-.57691-2.3077-.57691-2.3077" style="fill:#fff; stroke:#263238; stroke-linecap:round; stroke-linejoin:round;"></path><path d="M279.85879,127.9092c-.7693-5.6732-2.30779-7.2116-2.30779-7.2116,0,0-.67311-3.3654-7.98081-5.4809-7.3078-2.1154-10.4809-2.6923-17.981,1.7308-.2485,.1466-3.5578,4.7116-4.327,5.7693-.76919,1.0577-7.9808,2.7885-6.9231,3.4616,1.0576,.673,7.9808,2.4039,8.5578,2.5,.5769,.0962,6.25,1.6346,6.25,1.6346,0,0-1.15389,12.981-1.6346,14.4233-.4808,1.4423-4.6154,2.5962-4.327,3.3654,.2885,.7693,.577,1.25,1.05771,1.25,.48079,0,3.46159-1.5385,4.23079-2.3077,0,0,1.7309,.0962,2.9809,.0962s4.3269-1.7308,4.7116-1.827c.3845-.0961,3.75-.0961,3.75-.0961,0,0,0,5.2885,.5769,5.6731s2.6923,1.4423,3.6539,.7693c.9615-.6731,5.0962-11.4425,5.0962-11.4425,0,0,2.1154,.0962,2.7885-1.0577s2.59621-5.577,1.827-11.2501Zm-11.7309,11.6347c-.8654,1.8269-3.3654,3.1731-5.0001,3.3655-1.6346,.1923-4.6155-.577-5.3847-2.8847s.3846-8.3655,.3846-8.3655c0,0,3.3655-.0962,6.2501,.6731,2.8847,.7693,5.1924,2.7885,5.1924,2.7885,0,0-.577,2.5962-1.4423,4.4231Z" style="fill:#263238; stroke:#263238; stroke-linecap:round; stroke-linejoin:round;"></path></g><g><path d="M261.12529,181.1038s-27.0662,21.9523-27.8146,22.5759c-.7484,.6237-2.2451,.7484-3.8666,1.1226s-29.1866,2.9935-29.1866,2.9935l-.6237-1.8709c-.6236-1.871-1.372-8.2322-1.372-8.2322l31.0576-9.2299,9.4794-11.2256,5.4881-11.8493s4.98911-6.7354,9.4794-8.4816c4.4902-1.7462,7.6084-.7483,8.6063,.9979" style="fill:#263238; stroke:#263238; stroke-miterlimit:10;"></path><path d="M255.38769,185.8435s6.9849-1.6215,8.7311-3.4924" style="fill:none; stroke:#263238; stroke-miterlimit:10;"></path></g><g><path d="M247.28979,301.5224l-4.3777-7.3531,2.5576-1.5683,4.378,7.3535c.4329,.7062,.2114,1.6297-.4948,2.0627v.0001c-.7064,.4331-1.6301,.2115-2.0631-.4949Z" style="fill:#263238;"></path><rect x="216.4845" y="198.71223" width="1.9998" height="102.20665" transform="translate(-98.49151 150.4853) rotate(-31.50675)" style="fill:#263238;"></rect></g><path d="M198.26179,197.6927s.4017-1.543-1.0963-1.4278c-1.4979,.1152-4.4938,2.1893-4.4938,2.1893,0,0-5.6462,.9218-7.1441,2.3045s-2.1893,4.1482-1.9589,5.3005c.2305,1.1522,1.498,3.572,2.0741,4.0329,.5762,.4609,1.1523,1.3827,2.3046,.1152,1.1522-1.2675,1.8436-1.8436,1.8436-1.8436,0,0,1.3827,.1152,3.572-.3457,2.1893-.4609,3.2264-1.3827,3.2264-1.3827l3.0444-.7104-1.372-8.2322Z" style="fill:#fff; stroke:#263238; stroke-miterlimit:10;"></path><path d="M186.785,210.2377l-43.5418,22.3508c-5.1427,2.6398-10.3896,5.0713-15.7281,7.2886l-30.8366,12.8075,.6206,2.3582,30.6037-13.0332c5.824-2.4802,11.5357-5.2163,17.1185-8.2002l42.0119-22.4546-51.0107,32.6419-33.5107,21.844,.9929,1.8617,40.2129-26.3121,47.1632-30.6561s.7447-.7447,.4964-1.6135c-.2482-.8688-.8688-1.6135-.8688-1.6135l-3.7234,2.7305Z" style="fill:#263238; stroke:#263238; stroke-miterlimit:10;"></path><g><path d="M411.27839,339.3923s9.6412,7.314,20.9447,6.6491" style="fill:none; stroke:#263238; stroke-miterlimit:10;"></path><path d="M436.00479,364.6589c3.3661,.6649,6.0257,1.1636,7.85421,2.6597" style="fill:none; stroke:#263238; stroke-miterlimit:10;"></path><path d="M410.61349,347.7037s3.9894,8.9763,13.2982,13.2982c2.3272,1.0805,4.5089,1.8285,6.5296,2.3895" style="fill:none; stroke:#263238; stroke-miterlimit:10;"></path><path d="M398.23659,305.6289c1.0108,2.8071,2.1321,5.4472,3.4006,7.8318" style="fill:none; stroke:#263238; stroke-miterlimit:10;"></path><path d="M387.20959,263.3046c3.5035,10.3482,5.7283,25.7287,9.7827,38.6218" style="fill:none; stroke:#263238; stroke-miterlimit:10;"></path><path d="M366.39679,246.3047s12.9658-.3325,18.95,12.3008" style="fill:none; stroke:#263238; stroke-miterlimit:10;"></path><path d="M432.236,337.6944c5.80269,2.0913,10.85149,4.008,13.61779,6.0198" style="fill:none; stroke:#263238; stroke-miterlimit:10;"></path><path d="M387.674,286.5318s5.65179,29.2561,16.62279,38.2324c5.5014,4.5012,14.0958,7.9156,22.2201,10.872" style="fill:none; stroke:#263238; stroke-miterlimit:10;"></path><path d="M400.97219,300.495s4.6544,11.6359,14.2956,18.285" style="fill:none; stroke:#263238; stroke-miterlimit:10;"></path><path d="M420.25469,364.3265s19.6588,9.4035,21.9421,20.2798" style="fill:none; stroke:#263238; stroke-miterlimit:10;"></path></g></g></g></svg>
